<?xml version="1.0" encoding="UTF-8" standalone="no"?>
<!-- Generator: Adobe Illustrator 16.0.0, SVG Export Plug-In . SVG Version: 6.00 Build 0)  -->

<svg
   xmlns:dc="http://purl.org/dc/elements/1.1/"
   xmlns:cc="http://creativecommons.org/ns#"
   xmlns:rdf="http://www.w3.org/1999/02/22-rdf-syntax-ns#"
   xmlns:svg="http://www.w3.org/2000/svg"
   xmlns="http://www.w3.org/2000/svg"
   xmlns:sodipodi="http://sodipodi.sourceforge.net/DTD/sodipodi-0.dtd"
   xmlns:inkscape="http://www.inkscape.org/namespaces/inkscape"
   version="1.1"
   id="Layer_1"
   x="0px"
   y="0px"
   width="165px"
   height="90px"
   viewBox="0 0 165 90"
   enable-background="new 0 0 165 90"
   xml:space="preserve"
   inkscape:version="0.91 r13725"
   sodipodi:docname="H+K_Logo.svg"><metadata
     id="metadata35"><rdf:RDF><cc:Work
         rdf:about=""><dc:format>image/svg+xml</dc:format><dc:type
           rdf:resource="http://purl.org/dc/dcmitype/StillImage" /><dc:title></dc:title></cc:Work></rdf:RDF></metadata><defs
     id="defs33" /><sodipodi:namedview
     pagecolor="#ffffff"
     bordercolor="#666666"
     borderopacity="1"
     objecttolerance="10"
     gridtolerance="10"
     guidetolerance="10"
     inkscape:pageopacity="0"
     inkscape:pageshadow="2"
     inkscape:window-width="1096"
     inkscape:window-height="585"
     id="namedview31"
     showgrid="false"
     fit-margin-top="30"
     fit-margin-bottom="20"
     inkscape:zoom="2.1151515"
     inkscape:cx="82.5"
     inkscape:cy="45"
     inkscape:window-x="754"
     inkscape:window-y="467"
     inkscape:window-maximized="0"
     inkscape:current-layer="Layer_1" /><g
     id="g3"
     transform="translate(0,5)"><g
       id="g5"><g
         id="g7"><path
           d="m 69.648,47.7 9.762,0 0,9.756 -0.004,0.006 -7.25,7.26 C 71.979,64.899 71.736,65 71.482,65 71.228,65 70.988,64.899 70.808,64.722 l -8.412,-8.414 0,0 c -0.373,-0.37 -0.373,-0.973 0,-1.346 l 7.246,-7.258 0.006,-0.004 z"
           id="path9"
           inkscape:connector-curvature="0"
           style="fill:#c61c2c" /></g><g
         id="g11"><path
           d="m 84.809,57.462 0.002,-9.762 9.754,0 0.006,0.004 7.26,7.249 c 0.178,0.179 0.277,0.419 0.277,0.674 0.002,0.253 -0.1,0.493 -0.277,0.673 l -8.414,8.414 0,0 c -0.371,0.371 -0.973,0.371 -1.344,0 l -7.26,-7.248 -0.004,-0.004 z"
           id="path13"
           inkscape:connector-curvature="0"
           style="fill:#c61c2c" /></g><g
         id="g15"><path
           d="m 69.648,42.302 9.762,-0.002 0,-9.756 -0.004,-0.006 -7.25,-7.26 C 71.979,25.101 71.736,25 71.482,25 c -0.254,0 -0.494,0.101 -0.674,0.278 l -8.412,8.413 0,0 c -0.373,0.372 -0.373,0.974 0,1.347 l 7.246,7.258 0.006,0.006 z"
           id="path17"
           inkscape:connector-curvature="0"
           style="fill:#c61c2c" /></g><g
         id="g19"><path
           d="m 84.809,32.538 0.002,9.764 9.754,0 0.006,-0.006 7.26,-7.249 c 0.178,-0.179 0.277,-0.421 0.277,-0.674 0.002,-0.253 -0.1,-0.495 -0.277,-0.675 l -8.414,-8.412 0,0 c -0.371,-0.371 -0.973,-0.371 -1.344,0 l -7.26,7.247 -0.004,0.005 z"
           id="path21"
           inkscape:connector-curvature="0"
           style="fill:#c61c2c" /></g></g><path
       d="m 28.327,25.001 0,15.35 16.19,0 0,-15.35 8.795,0 0,39.999 -8.795,0 0,-17.253 -16.19,0 0,17.253 -8.796,0 0,-39.999 8.796,0 z"
       id="path23"
       inkscape:connector-curvature="0"
       style="fill:#231f20" /><path
       d="m 110.904,25.001 7.002,0 0,18.207 17.816,-18.207 8.625,0 -15.967,15.965 17.089,24.034 -8.74,0 -13.107,-19.103 -5.715,5.658 0,13.445 -7.002,0 0,-39.999 z"
       id="path25"
       inkscape:connector-curvature="0"
       style="fill:#231f20" /></g><g
     id="Favorite_x5F_active" /><g
     id="Call_x5F_us" /><g
     id="Search_x5F_Ico" /><g
     id="Dropdown_Icon" /></svg>